Coordinates
version=1
nRows=4
nColumns=107
inDegrees=yes

Units are S.I. units (second, meters, Newtons, ...)
If the header above contains a line with 'inDegrees', this indicates whether rotational values are in degrees (yes) or radians (no).

endheader
time	sternoclavicular_r2	sternoclavicular_r3	unrotscap_r3	unrotscap_r2	acromioclavicular_r2	acromioclavicular_r3	acromioclavicular_r1	unrothum_r1	unrothum_r3	unrothum_r2	elv_angle	shoulder_elv	shoulder1_r2	shoulder_rot	elbow_flexion	pro_sup	deviation	flexion	proximal_distal_r1	proximal_distal_r3	cmc_flexion	cmc_abduction	mp_flexion	ip_flexion	mcp2_flexion	mcp2_abduction	pm2_flexion	md2_flexion	mcp3_flexion	mcp3_abduction	pm3_flexion	md3_flexion	mcp4_flexion	mcp4_abduction	pm4_flexion	md4_flexion	mcp5_flexion	mcp5_abduction	pm5_flexion	md5_flexion	bicpt_tx	bicpt_ty	bicpt_tz	bicpt2_tx	bicpt2_ty	bicpt2_tz	ptpt_tx	ptpt_ty	ptpt_tz	FCUpt_tx	FCUpt_ty	FCUpt_tz	EDCpt_tx	EDCpt_ty	EDCpt_tz	APLpt_tx	APLpt_ty	APLpt_tz	FPLpt_tx	FPLpt_ty	FPLpt_tz	FPLpt2_tx	FPLpt2_ty	FPLpt2_tz	PEC1pt2_tx	PEC1pt2_ty	PEC1pt2_tz	PEC1pt3_tx	PEC1pt3_ty	PEC1pt3_tz	PEC2pt2_tx	PEC2pt2_ty	PEC2pt2_tz	PEC2pt3_tx	PEC2pt3_ty	PEC2pt3_tz	PEC3pt2_tx	PEC3pt2_ty	PEC3pt2_tz	PEC3pt3_tx	PEC3pt3_ty	PEC3pt3_tz	DELT2pt2a_tx	DELT2pt2a_ty	DELT2pt2a_tz	DELT2pt2_tx	DELT2pt2_ty	DELT2pt2_tz	LAT1pt2_tx	LAT1pt2_ty	LAT1pt2_tz	LAT1pt3_tx	LAT1pt3_ty	LAT1pt3_tz	LAT2pt2_tx	LAT2pt2_ty	LAT2pt2_tz	LAT2pt3_tx	LAT2pt3_ty	LAT2pt3_tz	LAT3pt2_tx	LAT3pt2_ty	LAT3pt2_tz	LAT3pt3_tx	LAT3pt3_ty	LAT3pt3_tz
      0.40000000	     -0.32882707	      0.13927563	     -0.13927563	      0.32882707	     -0.06658079	      0.53808255	      0.24186440	     -0.24186440	     -0.53808255	      0.06658079	     98.50802981	     77.85273200	     -1.71928946	    -17.76276779	     28.68126735	     40.49235015	      0.22872643	     -0.00257794	      0.26759312	     -0.00128897	     31.79518026	    -21.76952507	      0.56929544	      2.95045407	     -6.09380996	      9.78926827	     14.03677655	    -26.54690931	    -10.26171540	      6.59344492	      7.44628019	     11.41145635	    -11.58337501	     -4.71023044	     -0.89184177	     21.17894343	    -20.46441241	    -13.58383943	      2.85168619	      5.09958486	      0.00084869	     -0.03088731	     -0.00482950	      0.01657505	     -0.01799141	     -0.00741730	      0.00455807	     -0.06683463	     -0.00331188	      0.00782984	     -0.18348479	     -0.00038982	     -0.00485907	      0.00140031	      0.00014282	      0.00000263	      0.00000105	      0.00000526	      0.00000337	      0.00001011	      0.00000569	     -0.00001067	     -0.00023325	     -0.00027990	      0.00255184	      0.00895307	      0.00622822	     -0.00834755	      0.02015522	     -0.01911719	      0.00255184	      0.00895307	      0.00622822	      0.00056227	      0.01868467	     -0.00981810	      0.00401123	      0.00497869	      0.01612027	      0.00000000	      0.00810839	      0.00000000	     -0.00730951	     -0.03377946	     -0.00668752	      0.01245178	     -0.00036424	     -0.00256176	     -0.00090828	      0.01522455	     -0.00622822	      0.00250859	      0.02197179	     -0.01816565	     -0.00609847	      0.01319172	     -0.00557945	     -0.01271596	      0.02785400	     -0.03118437	     -0.02387486	      0.01474878	     -0.00748252	     -0.01583007	      0.03217916	     -0.03896965
      0.43333333	     -0.32526752	      0.13776797	     -0.13776797	      0.32526752	     -0.06586006	      0.53225780	      0.23924622	     -0.23924622	     -0.53225780	      0.06586006	     99.22543853	     77.00997546	     -1.73181060	    -21.86643805	     28.78124606	     43.82352877	      0.19179925	     -0.04528973	      0.23018904	     -0.02264486	     31.26068787	    -21.90121164	      2.33693815	     -0.27096575	     -6.72748381	      9.66719337	     16.09199354	    -28.53248730	    -10.34817537	      6.30508414	      7.07927183	     13.74417512	    -11.82480035	     -4.96228567	     -1.25936603	     24.63105980	    -21.19541916	    -13.63140403	      4.33371323	      5.07795351	      0.00085199	     -0.03089877	     -0.00483135	      0.01656483	     -0.01801857	     -0.00705161	      0.00431194	     -0.06699379	     -0.00358022	      0.00816744	     -0.18341345	     -0.00040806	     -0.00525881	      0.00153804	      0.00011501	      0.00004462	      0.00001785	      0.00008924	      0.00005712	      0.00017135	      0.00009638	     -0.00001011	     -0.00023862	     -0.00028634	      0.00252422	      0.00885615	      0.00616080	     -0.00825719	      0.01993704	     -0.01891024	      0.00252422	      0.00885615	      0.00616080	      0.00055618	      0.01848241	     -0.00971182	      0.00397972	      0.00492480	      0.01604481	      0.00000000	      0.00793252	      0.00000000	     -0.00723039	     -0.03341380	     -0.00654157	      0.01482999	     -0.00048994	     -0.00397322	     -0.00089845	      0.01505974	     -0.00616080	      0.00248143	      0.02173394	     -0.01796901	     -0.00603245	      0.01304892	     -0.00551905	     -0.01257831	      0.02755248	     -0.03084680	     -0.02361641	      0.01458912	     -0.00740152	     -0.01565871	      0.03183082	     -0.03854780
      0.46666667	     -0.33174270	      0.14051055	     -0.14051055	      0.33174270	     -0.06717115	      0.54285359	      0.24400895	     -0.24400895	     -0.54285359	      0.06717115	     98.02762855	     78.54303201	     -1.71090488	    -14.23568706	     28.18963340	     35.31982872	      0.21856595	     -0.08896871	      0.25752381	     -0.04448436	     30.53060420	    -21.30298348	      2.23630881	     -0.43587065	     -4.44757813	      9.57634525	     14.87640589	    -31.31034999	     -8.81738355	      6.33546913	      6.69856446	     12.03738695	    -11.29743167	     -4.90602635	     -0.97851976	     25.13112357	    -21.65444944	    -13.65432165	      4.81469395	      5.04040268	      0.00083243	     -0.03083096	     -0.00482042	      0.01654061	     -0.01785785	     -0.00795429	      0.00494026	     -0.06658750	     -0.00289520	      0.00731242	     -0.18358931	     -0.00034495	     -0.00423837	      0.00119324	      0.00017409	      0.00008440	      0.00003376	      0.00016880	      0.00010803	      0.00032409	      0.00018230	     -0.00000924	     -0.00024544	     -0.00029452	      0.00257447	      0.00903246	      0.00628345	     -0.00842157	      0.02033394	     -0.01928669	      0.00257447	      0.00903246	      0.00628345	      0.00056726	      0.01885034	     -0.00990516	      0.00403685	      0.00502283	      0.01618084	      0.00000000	      0.00825392	      0.00000000	     -0.00737432	     -0.03407898	     -0.00680826	      0.01022772	     -0.00026186	     -0.00157122	     -0.00091634	      0.01535954	     -0.00628345	      0.00253083	      0.02216661	     -0.01832672	     -0.00615254	      0.01330869	     -0.00562892	     -0.01282871	      0.02810098	     -0.03146087	     -0.02408655	      0.01487955	     -0.00754886	     -0.01597043	      0.03246448	     -0.03931518
      0.50000000	     -0.32931076	      0.13948049	     -0.13948049	      0.32931076	     -0.06667873	      0.53887404	      0.24222017	     -0.24222017	     -0.53887404	      0.06667873	     98.47436064	     77.96724852	     -1.71870182	    -16.90599860	     28.28138568	     38.24139136	      0.21246004	     -0.08395346	      0.25139145	     -0.04197673	     30.92773549	    -21.36949824	      1.55069758	      0.64406775	     -4.23350401	      9.46467324	     14.45418560	    -30.89783731	     -8.98540980	      6.58090572	      7.11869171	     11.35708016	    -10.59676317	     -4.99254739	     -1.26600780	     23.40978995	    -21.04065350	    -13.65222498	      4.18617589	      5.05257633	      0.00083546	     -0.03084148	     -0.00482212	      0.01656766	     -0.01788278	     -0.00765564	      0.00472439	     -0.06672708	     -0.00313055	      0.00760365	     -0.18353122	     -0.00037279	     -0.00458896	      0.00130917	      0.00015822	      0.00007999	      0.00003200	      0.00015999	      0.00010239	      0.00030718	      0.00017279	     -0.00000975	     -0.00024192	     -0.00029031	      0.00255560	      0.00896624	      0.00623739	     -0.00835983	      0.02018487	     -0.01914531	      0.00255560	      0.00896624	      0.00623739	      0.00056310	      0.01871216	     -0.00983254	      0.00401549	      0.00498601	      0.01613040	      0.00000000	      0.00813244	      0.00000000	     -0.00732026	     -0.03382915	     -0.00670747	      0.01192686	     -0.00033887	     -0.00230150	     -0.00090962	      0.01524694	     -0.00623739	      0.00251228	      0.02200411	     -0.01819237	     -0.00610744	      0.01321113	     -0.00558766	     -0.01273466	      0.02789497	     -0.03123024	     -0.02390998	      0.01477047	     -0.00749353	     -0.01585335	      0.03222649	     -0.03902697
